# xmcd CD database file
#
# Track frame offsets:
#	182
#	13080
#	26717
#	39372
#	52887
#	68342
#	83280
#	97495
#	111947
#	126795
#	139822
#	153987
#	166427
#	179857
#
# Disc length: 2562 seconds
#
# Revision: 1
# Processed by: cddbd v1.5.2PL0 Copyright (c) Steve Scherf et al.
# Submitted via: CDex 1.99.1
#
DISCID=b70a000e
DTITLE=Various Artist - St Louis Blues 1929 - 1935 The Depression
DYEAR=1991
DGENRE=Blues
TTITLE0=Stick With The Blues - Henry Townsend
TTITLE1=Mistreated Blues - Henry Townsend
TTITLE2=Raidin' Squad Blues - Charley Jordan
TTITLE3=Poor Man Blues - Henry Townsend
TTITLE4=Preachers Blues - Hi Henry Brown
TTITLE5=Gasoline Blues - Charley Jordan
TTITLE6=Titanic Blues - Hi Henry Brown
TTITLE7=Never Mind Blues - Georgia Boyd
TTITLE8=She's Got A Mean Disposition - Henry Townsend
TTITLE9=Sleepless Night Blues - Peetie Wheatstraw
TTITLE10=Henry's Worried Blues - Henry Townsend
TTITLE11=Keep It Clean - Charley Jordan
TTITLE12=Back Door Blues - Joe Stone
TTITLE13=Big Four Blues - Charley Jordan
EXTD=YEAR: 1991
EXTT0=
EXTT1=
EXTT2=
EXTT3=
EXTT4=
EXTT5=
EXTT6=
EXTT7=
EXTT8=
EXTT9=
EXTT10=
EXTT11=
EXTT12=
EXTT13=
PLAYORDER=
